<?xml version="1.0" encoding="iso-8859-1"?>
<!-- Uploaded to: SVG Repo, www.svgrepo.com, Generator: SVG Repo Mixer Tools -->
<svg version="1.1" id="Layer_1" xmlns="http://www.w3.org/2000/svg" xmlns:xlink="http://www.w3.org/1999/xlink" 
	 viewBox="0 0 512 512" xml:space="preserve">
<rect x="345.268" y="195.266" style="fill:#FFA81D;" width="149.555" height="34.336"/>
<rect x="345.268" y="253.076" style="fill:#A8D9F3;" width="149.555" height="34.336"/>
<rect x="345.268" y="79.635" style="fill:#FFA81D;" width="149.555" height="34.336"/>
<rect x="345.268" y="137.457" style="fill:#A8D9F3;" width="149.555" height="34.336"/>
<rect x="345.268" y="310.886" style="fill:#FFA81D;" width="149.555" height="34.336"/>
<rect x="345.268" y="368.696" style="fill:#A8D9F3;" width="149.555" height="34.336"/>
<g>
	<rect x="420.051" y="253.076" style="fill:#5BBBED;" width="74.783" height="34.336"/>
	<rect x="420.051" y="137.457" style="fill:#5BBBED;" width="74.783" height="34.336"/>
	<rect x="420.051" y="368.696" style="fill:#5BBBED;" width="74.783" height="34.336"/>
</g>
<rect x="345.268" y="426.506" style="fill:#FFA81D;" width="149.555" height="34.336"/>
<g>
	<rect x="420.051" y="195.266" style="fill:#FF8600;" width="74.783" height="34.336"/>
	<rect x="420.051" y="79.635" style="fill:#FF8600;" width="74.783" height="34.336"/>
	<rect x="420.051" y="310.886" style="fill:#FF8600;" width="74.783" height="34.336"/>
	<rect x="420.051" y="426.506" style="fill:#FF8600;" width="74.783" height="34.336"/>
</g>
<path style="fill:#7E4F1F;" d="M345.273,498.63c-9.481,0-17.168-7.687-17.168-17.168V30.536c0-9.481,7.687-17.168,17.168-17.168
	c9.481,0,17.168,7.687,17.168,17.168v450.926C362.441,490.944,354.754,498.63,345.273,498.63z"/>
<rect x="104.907" y="30.536" style="fill:#797882;" width="34.336" height="210.432"/>
<rect x="122.075" y="30.536" style="fill:#3E3E42;" width="17.168" height="210.432"/>
<path style="fill:#A8D9F3;" d="M122.075,333.684c-28.67,0-51.996-23.325-51.996-51.996c0-28.671,23.325-51.997,51.996-51.997
	s51.996,23.325,51.996,51.997C174.07,310.359,150.745,333.684,122.075,333.684z M122.075,264.028c-9.738,0-17.66,7.922-17.66,17.661
	c0,9.738,7.922,17.66,17.66,17.66s17.66-7.922,17.66-17.66C139.735,271.951,131.812,264.028,122.075,264.028z"/>
<rect x="233.666" y="30.536" style="fill:#797882;" width="34.336" height="210.432"/>
<rect x="250.834" y="30.536" style="fill:#3E3E42;" width="17.168" height="210.432"/>
<path style="fill:#A8D9F3;" d="M250.828,333.684c-28.67,0-51.996-23.325-51.996-51.996c0-28.671,23.325-51.997,51.996-51.997
	s51.996,23.325,51.996,51.997C302.824,310.359,279.499,333.684,250.828,333.684z M250.828,264.028
	c-9.738,0-17.66,7.922-17.66,17.661c0,9.738,7.922,17.66,17.66,17.66c9.738,0,17.66-7.922,17.66-17.66
	C268.488,271.951,260.567,264.028,250.828,264.028z"/>
<path style="fill:#F7DC4D;" d="M494.832,498.63c-9.481,0-17.168-7.687-17.168-17.168V60.642c0-7.134-5.804-12.938-12.937-12.938
	H47.272c-7.133,0-12.937,5.803-12.937,12.938v420.822c0,9.481-7.687,17.168-17.168,17.168S0,490.945,0,481.464V60.642
	c0-26.067,21.206-47.273,47.272-47.273h417.456c26.065,0,47.272,21.206,47.272,47.273v420.822
	C512,490.944,504.313,498.63,494.832,498.63z"/>
<path style="fill:#FF8600;" d="M464.728,13.369h-208.35v34.336h208.35c7.133,0,12.937,5.803,12.937,12.938v420.822
	c0,9.481,7.687,17.168,17.168,17.168S512,490.945,512,481.464V60.642C512,34.574,490.793,13.369,464.728,13.369z"/>
<g>
	<path style="fill:#5BBBED;" d="M122.075,229.693v34.336c9.738,0,17.66,7.922,17.66,17.661c0,9.738-7.922,17.66-17.66,17.66v34.336
		c28.67,0,51.996-23.325,51.996-51.996C174.07,253.018,150.745,229.693,122.075,229.693z"/>
	<path style="fill:#5BBBED;" d="M250.828,229.693v34.336c9.738,0,17.66,7.922,17.66,17.661c0,9.738-7.922,17.66-17.66,17.66v34.336
		c28.67,0,51.996-23.325,51.996-51.996C302.824,253.018,279.499,229.693,250.828,229.693z"/>
</g>
</svg>